<svg width="30" height="30" viewBox="0 0 30 30" fill="none" xmlns="http://www.w3.org/2000/svg">
<g id="24 Hours service 1">
<g id="Group">
<g id="Group_2">
<path id="Vector" d="M26.6021 6.32812H26.1328V5.74219C26.1328 4.77293 25.3443 3.98438 24.375 3.98438C23.4057 3.98438 22.6172 4.77293 22.6172 5.74219V6.32812H21.4453V2.92969C21.4453 1.96043 20.6568 1.17188 19.6875 1.17188H17.6083C17.2847 1.17188 17.0224 1.43426 17.0224 1.75781C17.0224 2.08137 17.2847 2.34375 17.6083 2.34375H19.6875C20.0106 2.34375 20.2734 2.6066 20.2734 2.92969V6.32812H19.1016V4.10156C19.1016 3.77801 18.8392 3.51562 18.5156 3.51562H11.4844C11.1608 3.51562 10.8984 3.77801 10.8984 4.10156V6.32812H9.72656V2.92969C9.72656 2.6066 9.98941 2.34375 10.3125 2.34375H12.3349C12.6584 2.34375 12.9208 2.08137 12.9208 1.75781C12.9208 1.43426 12.6584 1.17188 12.3349 1.17188H10.3125C9.34324 1.17188 8.55469 1.96043 8.55469 2.92969V6.32812H7.38281V5.74219C7.38281 4.77293 6.59426 3.98438 5.625 3.98438C4.65574 3.98438 3.86719 4.77293 3.86719 5.74219V6.32812H3.39785C1.52432 6.32812 0 7.85244 0 9.72598V25.4303C0 27.3038 1.52432 28.8281 3.39785 28.8281H26.6021C28.4757 28.8281 30 27.3038 30 25.4303V9.72598C30 7.85244 28.4757 6.32812 26.6021 6.32812ZM23.7891 5.74219C23.7891 5.4191 24.0519 5.15625 24.375 5.15625C24.6981 5.15625 24.9609 5.4191 24.9609 5.74219V6.32812H23.7891V5.74219ZM12.0703 4.6875H17.9297V6.32812H12.0703V4.6875ZM5.03906 5.74219C5.03906 5.4191 5.30191 5.15625 5.625 5.15625C5.94809 5.15625 6.21094 5.4191 6.21094 5.74219V6.32812H5.03906V5.74219ZM28.8281 25.4303C28.8281 26.6577 27.8296 27.6562 26.6021 27.6562H3.39785C2.17043 27.6562 1.17188 26.6577 1.17188 25.4303V9.72598C1.17188 8.49856 2.17043 7.5 3.39785 7.5H26.6021C27.8296 7.5 28.8281 8.49856 28.8281 9.72598V25.4303Z" fill="#67D7C1"/>
<path id="Vector_2" d="M15 11.4418C11.6164 11.4418 8.86365 14.1945 8.86365 17.5781C8.86365 20.9617 11.6164 23.7145 15 23.7145C18.3836 23.7145 21.1364 20.9617 21.1364 17.5781C21.1364 14.1946 18.3836 11.4418 15 11.4418ZM15 22.5426C12.2626 22.5426 10.0355 20.3156 10.0355 17.5781C10.0355 14.8407 12.2626 12.6136 15 12.6136C17.7374 12.6136 19.9645 14.8407 19.9645 17.5781C19.9645 20.3156 17.7374 22.5426 15 22.5426Z" fill="#67D7C1"/>
<path id="Vector_3" d="M17.1667 15.8203H16.7652V15.4188C16.7652 14.8072 16.2677 14.3097 15.6561 14.3097H14.3586C13.747 14.3097 13.2495 14.8072 13.2495 15.4188V15.8203H12.848C12.2364 15.8203 11.7389 16.3178 11.7389 16.9294V18.2269C11.7389 18.8385 12.2364 19.336 12.848 19.336H13.2495V19.7375C13.2495 20.3491 13.747 20.8466 14.3586 20.8466H15.6561C16.2677 20.8466 16.7652 20.3491 16.7652 19.7375V19.3359H17.1667C17.7783 19.3359 18.2758 18.8384 18.2758 18.2269V16.9294C18.2758 16.3178 17.7783 15.8203 17.1667 15.8203ZM17.1039 18.164H16.1793C15.8557 18.164 15.5934 18.4264 15.5934 18.75V19.6746H14.4215V18.75C14.4215 18.4264 14.1591 18.164 13.8356 18.164H12.9109V16.9922H13.8356C14.1591 16.9922 14.4215 16.7298 14.4215 16.4062V15.4816H15.5934V16.4062C15.5934 16.7298 15.8557 16.9922 16.1793 16.9922H17.1039V18.164Z" fill="#67D7C1"/>
<path id="Vector_4" d="M14.9716 2.34375C15.2952 2.34375 15.5575 2.08142 15.5575 1.75781C15.5575 1.43421 15.2952 1.17188 14.9716 1.17188C14.648 1.17188 14.3856 1.43421 14.3856 1.75781C14.3856 2.08142 14.648 2.34375 14.9716 2.34375Z" fill="#67D7C1"/>
</g>
</g>
</g>
</svg>
